<?xml version="1.0" standalone="no"?>
<!DOCTYPE svg PUBLIC "-//W3C//DTD SVG 20010904//EN"
 "http://www.w3.org/TR/2001/REC-SVG-20010904/DTD/svg10.dtd">
<svg version="1.0" xmlns="http://www.w3.org/2000/svg"
 width="512.000000pt" height="512.000000pt" viewBox="0 0 512.000000 512.000000"
 preserveAspectRatio="xMidYMid meet">

<g transform="translate(0.000000,512.000000) scale(0.100000,-0.100000)"
fill="#000000" stroke="none">
<path d="M475 3276 c-112 -77 -339 -287 -324 -300 11 -10 222 -126 229 -126 4
0 39 44 76 97 38 54 110 139 161 189 l92 92 -72 48 c-40 27 -74 50 -77 52 -3
1 -42 -22 -85 -52z"/>
<path d="M1184 2819 c-112 -113 -180 -166 -240 -187 -26 -10 -49 -22 -51 -27
-2 -6 62 -37 142 -69 144 -58 145 -58 172 -41 41 27 188 170 249 244 l53 64
-97 44 c-53 25 -106 48 -118 53 -18 7 -35 -5 -110 -81z"/>
<path d="M1708 2683 c-9 -21 -46 -105 -83 -187 -36 -81 -65 -149 -63 -150 5
-4 184 -56 190 -56 3 0 13 18 22 39 8 22 45 103 81 181 37 78 65 143 63 145
-2 1 -41 15 -88 30 -47 15 -90 30 -96 32 -6 2 -18 -13 -26 -34z"/>
<path d="M13 2675 c0 -22 2 -30 4 -17 2 12 2 30 0 40 -3 9 -5 -1 -4 -23z"/>
<path d="M2118 2526 c-20 -31 -50 -91 -67 -133 -40 -98 -47 -113 -66 -139 -15
-20 -13 -21 92 -43 60 -12 116 -25 127 -28 12 -3 16 -1 12 6 -4 6 -18 11 -31
11 -13 0 -27 5 -30 10 -4 6 -11 8 -16 5 -5 -4 -9 -1 -9 5 0 6 12 8 29 5 17 -3
33 0 37 6 5 8 9 8 14 -1 11 -18 30 -3 30 23 1 21 1 21 15 3 13 -17 15 -17 21
-3 3 9 10 14 15 11 5 -3 7 -10 4 -15 -4 -5 -2 -9 2 -9 5 0 14 9 20 19 9 14 21
19 43 16 16 -2 30 0 30 5 0 6 7 10 15 10 11 0 15 11 15 38 1 20 14 70 30 110
19 50 25 74 17 77 -18 5 -259 58 -287 62 -21 4 -31 -4 -62 -51z"/>
<path d="M2575 2396 c-25 -79 -28 -93 -13 -85 9 5 23 6 31 3 8 -3 18 -1 21 5
4 6 13 8 20 5 8 -3 21 5 30 17 15 22 43 126 35 133 -2 2 -24 6 -49 10 l-45 6
-30 -94z"/>
<path d="M2785 2423 c-20 -38 -22 -83 -4 -83 5 0 14 11 19 25 5 14 17 25 25
25 9 0 13 -4 10 -10 -3 -5 -2 -10 2 -10 5 0 14 9 20 19 7 12 19 17 30 15 11
-3 28 5 42 20 l24 26 -30 0 c-17 0 -50 3 -74 6 -43 5 -45 5 -64 -33z"/>
<path d="M2987 2433 c18 -2 50 -2 70 0 21 2 7 4 -32 4 -38 0 -55 -2 -38 -4z"/>
<path d="M3113 2423 c9 -2 25 -2 35 0 9 3 1 5 -18 5 -19 0 -27 -2 -17 -5z"/>
<path d="M3313 2423 c9 -2 23 -2 30 0 6 3 -1 5 -18 5 -16 0 -22 -2 -12 -5z"/>
<path d="M2398 2153 c7 -3 16 -2 19 1 4 3 -2 6 -13 5 -11 0 -14 -3 -6 -6z"/>
<path d="M2448 2143 c6 -2 18 -2 25 0 6 3 1 5 -13 5 -14 0 -19 -2 -12 -5z"/>
</g>
</svg>
